# 3ds Max Wavefront OBJ Exporter v0.97b - (c)2007 guruware
# File Created: 23.07.2017 01:27:11

mtllib Chapter1_L1_Minge04_PlatformWooden_5.mtl

#
# object PlatformWooden
#

v  -34.6357 -7.3100 62.6980
v  -11.2272 -6.2603 61.0442
v  -12.4008 -6.2603 62.4702
v  -36.2716 2.4997 -4.4126
v  -61.5697 0.3263 -28.8562
v  -61.8101 0.1174 19.7643
v  -63.0095 1.2387 39.3299
v  -37.9076 1.2387 63.8566
v  -61.0236 1.2387 62.6980
v  -61.5697 -5.5824 -28.8562
v  -61.8101 -5.4144 19.7643
v  -63.0095 -5.6403 39.3299
v  -61.0236 -6.2603 62.6980
v  -37.9076 -6.2603 63.8566
v  -35.3830 2.1590 62.6980
v  -12.4008 1.2387 62.4702
v  -11.2272 0.0027 61.0442
v  14.5273 -6.2603 61.0754
v  -10.8272 1.2929 -4.4126
v  14.5273 0.6630 61.0754
v  17.3456 2.7046 62.7709
v  17.3456 -6.2603 62.7709
v  40.7536 -6.2603 63.8016
v  40.7536 1.2387 63.8016
v  43.0109 -0.0057 61.5959
v  41.3459 0.7196 -4.4126
v  16.1547 0.4817 -4.4126
v  66.7449 -0.9676 -41.3329
v  68.2843 0.8480 6.4787
v  41.3459 1.2387 -66.8838
v  16.1547 -0.4929 -65.3020
v  -9.0797 1.2387 -65.3020
v  -10.6131 2.3585 -66.5957
v  -37.2664 1.2387 -65.3020
v  66.7449 -6.2603 -41.3329
v  66.1543 -6.2603 -65.3020
v  65.1474 0.0000 -65.3020
v  41.3459 -6.2603 -66.8838
v  16.1547 -7.7416 -65.3020
v  -9.6299 -6.2603 -65.5056
v  -12.5752 -6.2603 -66.5957
v  -37.2664 -6.2603 -65.3020
v  -37.9076 2.1105 -66.9928
v  -61.0236 1.2387 -65.3020
v  -61.0236 -6.2603 -65.3020
v  -37.9076 -6.2603 -66.9928
v  69.2944 1.1222 52.9337
v  69.5284 1.2387 45.7024
v  66.9764 -0.5298 62.6980
v  66.9764 -6.2603 62.6980
v  69.2941 -6.2603 52.9386
v  69.5284 -5.6143 45.7024
v  68.2843 -5.2041 6.4787
v  43.0109 -6.2603 61.5959
v  -55.5637 -21.0469 56.4034
v  -58.0078 -21.0469 56.4034
v  -60.2639 -20.4699 -29.9579
v  -57.8199 -20.4699 -29.9579
v  -57.9057 -21.0469 -58.9974
v  -55.4616 -21.0469 -58.9974
v  -55.4616 -6.1757 -58.9974
v  -57.9057 -6.1757 -58.9974
v  -57.3387 -5.5987 -29.9579
v  -58.0078 -6.1757 56.4034
v  -55.5637 -6.1757 56.4034
v  -56.5996 -16.9122 -58.9974
v  -57.2818 -15.4273 -58.9974
v  -57.2818 -15.4273 -62.6297
v  -14.3126 -21.4716 -63.6798
v  -56.5996 -16.9122 -62.6297
v  -14.3126 -6.1757 -63.6798
v  -57.9057 -6.1757 -62.6297
v  -57.4721 -17.1495 -62.6297
v  29.2804 -20.3474 -62.6297
v  29.2804 -20.3474 -58.9974
v  -14.3126 -21.4716 -58.9974
v  -57.9057 -21.0469 -62.6297
v  -57.4721 -17.1495 -58.9974
v  29.2804 -6.1757 -62.6297
v  62.4310 -15.9553 -61.5390
v  62.9022 -6.1757 -62.6297
v  62.9022 -6.1757 -58.9974
v  62.9022 -21.0469 -58.9974
v  62.9022 -21.0469 -61.4167
v  59.9490 -21.0469 -58.9974
v  -56.5996 -16.9122 60.0257
v  -57.4721 -17.1495 60.0257
v  -14.3126 -21.4716 61.0758
v  -57.9057 -21.0469 60.0257
v  -57.9057 -21.0469 56.3934
v  -57.4721 -17.1495 56.3934
v  -56.5996 -16.9122 56.3934
v  -57.2818 -15.4273 60.0257
v  -14.3126 -6.1757 61.0758
v  29.2804 -20.3474 60.0257
v  -57.9057 -6.1757 60.0257
v  -57.2818 -15.4273 56.3934
v  -57.9057 -6.1757 56.3934
v  29.2804 -6.1757 60.0257
v  62.4310 -15.9553 60.6540
v  62.9022 -6.1757 60.0257
v  62.9022 -6.1757 56.3934
v  62.9022 -21.0469 56.3934
v  62.9022 -21.0469 59.1447
v  59.9490 -21.0469 56.3934
v  29.2804 -20.3474 56.3934
v  -14.3126 -21.4716 56.3934
v  58.6586 -21.0469 -1.3020
v  61.6119 -21.0469 -1.3020
v  62.9022 -5.2123 20.8238
# 110 vertices

vn 0.0466 -0.8777 0.4770
vn 0.2177 -0.8816 0.4187
vn 0.3254 -0.6869 0.6499
vn -0.0154 0.9999 -0.0060
vn -0.9002 0.4353 -0.0112
vn -0.7436 0.6663 -0.0551
vn -0.8464 0.5312 0.0372
vn 0.0735 0.6176 0.7831
vn -0.0176 0.9997 0.0180
vn -0.5636 0.5848 0.5835
vn -0.8976 -0.4408 -0.0093
vn -0.8998 -0.4346 -0.0388
vn -0.7423 -0.6701 -0.0034
vn -0.9981 0.0000 -0.0612
vn -0.4926 -0.7113 0.5014
vn 0.0047 -0.6768 0.7361
vn -0.0151 0.7870 0.6168
vn 0.4244 0.6299 0.6505
vn 0.6038 0.5686 0.5587
vn -0.1887 -0.7037 0.6850
vn 0.0352 0.9994 -0.0014
vn -0.4398 0.6225 0.6474
vn -0.3109 0.7001 0.6428
vn -0.1291 -0.8944 0.4282
vn 0.2523 -0.7071 0.6605
vn 0.3724 0.5744 0.7290
vn 0.4584 0.6885 0.5620
vn 0.0053 0.9999 -0.0116
vn -0.0094 0.9999 -0.0077
vn 0.0116 0.9999 -0.0089
vn 0.7346 0.6783 -0.0181
vn 0.7047 0.7086 -0.0369
vn -0.0005 0.7116 -0.7026
vn -0.0182 0.6959 -0.7179
vn 0.4991 0.6328 -0.5920
vn 0.3291 0.6639 -0.6715
vn 0.7110 0.5536 -0.4335
vn 0.1637 0.9864 -0.0155
vn 0.5482 -0.6766 -0.4916
vn 0.5381 0.6204 -0.5706
vn 0.0234 -0.7084 -0.7054
vn -0.0204 -0.7066 -0.7074
vn 0.1302 -0.7161 -0.6858
vn 0.0852 -0.7169 -0.6920
vn 0.3788 -0.7091 -0.5947
vn 0.4480 0.6131 -0.6506
vn -0.6030 0.5697 -0.5584
vn -0.1079 0.9939 0.0233
vn -0.5142 -0.7119 -0.4782
vn -1.0000 0.0000 -0.0049
vn 0.3773 -0.7124 -0.5917
vn 0.6297 0.7575 0.1723
vn 0.6982 0.7159 0.0079
vn 0.4829 0.5656 0.6685
vn 0.4256 -0.7071 0.5647
vn 0.6964 -0.7155 0.0549
vn 0.7107 -0.7032 -0.0204
vn 0.7289 -0.6840 -0.0287
vn 0.1626 -0.8941 0.4172
vn 0.0000 -0.7095 0.7047
vn -0.5787 -0.5784 0.5750
vn -0.7767 -0.6298 0.0100
vn 0.0000 -1.0000 0.0068
vn -0.5505 -0.5881 -0.5924
vn 0.0000 -0.7141 -0.7000
vn 0.0000 0.0000 -1.0000
vn -0.6920 0.0409 -0.7207
vn -0.9830 0.1826 0.0193
vn -0.7113 0.0000 0.7028
vn 0.0000 0.0000 1.0000
vn -0.9059 0.4235 -0.0000
vn -0.9692 -0.2464 -0.0000
vn -0.7282 -0.1844 -0.6601
vn 0.0055 -0.7057 -0.7085
vn -0.3640 0.1901 -0.9118
vn -0.0002 -0.0001 -1.0000
vn -0.7287 -0.0491 -0.6831
vn -0.9977 -0.0673 -0.0000
vn -0.6137 0.5224 -0.5920
vn 0.0218 -0.7005 -0.7133
vn 0.0015 -1.0000 -0.0000
vn 0.0080 -1.0000 -0.0000
vn -0.7484 -0.6632 -0.0000
vn -0.6197 -0.5448 -0.5649
vn -0.7597 0.6503 -0.0000
vn 0.0255 -0.0102 -0.9996
vn 0.6575 -0.0317 -0.7528
vn 0.6894 -0.1130 -0.7155
vn 0.9996 -0.0271 -0.0056
vn 0.7219 -0.6918 -0.0163
vn 0.6129 -0.5618 -0.5556
vn -0.0078 -0.9999 -0.0090
vn -0.3640 0.1901 0.9118
vn -0.6137 0.5224 0.5920
vn 0.0055 -0.7057 0.7085
vn -0.6197 -0.5448 0.5649
vn -0.7282 -0.1844 0.6601
vn -0.0002 -0.0001 1.0000
vn 0.0045 -0.7064 0.7078
vn -0.7287 -0.0491 0.6831
vn 0.0043 0.0059 1.0000
vn 0.6287 -0.0733 0.7742
vn 0.7320 0.0085 0.6812
vn 0.9997 -0.0246 0.0050
vn 0.7193 -0.6946 0.0139
vn 0.6265 -0.6179 0.4751
vn -0.0077 -0.9999 0.0079
vn 0.0000 -1.0000 -0.0000
vn 0.6771 -0.7359 0.0003
vn 0.9969 -0.0791 -0.0015
# 110 vertex normals

vt 0.0219 0.9069 0.9069
vt 0.0222 0.8490 0.8490
vt 0.0222 0.8568 0.8568
vt 0.1698 0.9099 0.9099
vt 0.2249 0.9673 0.9673
vt 0.1147 0.9676 0.9676
vt 0.0705 0.9676 0.9676
vt 0.0196 0.9141 0.9141
vt 0.0184 0.9670 0.9670
vt 0.2255 0.9803 0.9803
vt 0.1149 0.9803 0.9803
vt 0.0690 0.9803 0.9803
vt 0.0058 0.9799 0.9799
vt 0.0056 0.9157 0.9157
vt 0.0056 0.8484 0.8484
vt 0.0056 0.7958 0.7958
vt 0.0056 0.8553 0.8553
vt 0.0056 0.9066 0.9066
vt 0.1696 0.8524 0.8524
vt 0.0221 0.7946 0.7946
vt 0.0197 0.7880 0.7880
vt 0.0056 0.7888 0.7888
vt 0.0056 0.7358 0.7358
vt 0.0175 0.7363 0.7363
vt 0.0215 0.7302 0.7302
vt 0.1694 0.7346 0.7346
vt 0.1697 0.7914 0.7914
vt 0.2529 0.6758 0.6758
vt 0.1448 0.6743 0.6743
vt 0.3093 0.7334 0.7334
vt 0.3081 0.7909 0.7909
vt 0.3071 0.8485 0.8485
vt 0.3096 0.8524 0.8524
vt 0.3069 0.9128 0.9128
vt 0.2542 0.6633 0.6633
vt 0.3157 0.6711 0.6711
vt 0.3081 0.6799 0.6799
vt 0.3250 0.7329 0.7329
vt 0.3250 0.7913 0.7913
vt 0.3250 0.8488 0.8488
vt 0.3250 0.8557 0.8557
vt 0.3250 0.9127 0.9127
vt 0.3101 0.9154 0.9154
vt 0.3074 0.9657 0.9657
vt 0.3135 0.9760 0.9760
vt 0.3250 0.9176 0.9176
vt 0.0396 0.6714 0.6714
vt 0.0560 0.6714 0.6714
vt 0.0197 0.6736 0.6736
vt 0.0090 0.6587 0.6587
vt 0.0344 0.6589 0.6589
vt 0.0558 0.6589 0.6589
vt 0.1454 0.6589 0.6589
vt 0.0056 0.7285 0.7285
vt 0.4980 0.9919 0.9919
vt 0.4917 0.9919 0.9919
vt 0.4917 0.7305 0.7305
vt 0.4980 0.7305 0.7305
vt 0.4917 0.6436 0.6436
vt 0.4980 0.6436 0.6436
vt 0.4480 0.6365 0.6365
vt 0.4917 0.6365 0.6365
vt 0.4480 0.6440 0.6440
vt 0.4480 0.7307 0.7307
vt 0.4480 0.9921 0.9921
vt 0.4480 0.9995 0.9995
vt 0.4917 0.9995 0.9995
vt 0.4148 0.9988 0.9988
vt 0.4194 0.9988 0.9988
vt 0.4192 0.9900 0.9900
vt 0.4053 0.8763 0.8763
vt 0.4153 0.9882 0.9882
vt 0.4441 0.8763 0.8763
vt 0.4441 0.9918 0.9918
vt 0.4441 0.9988 0.9988
vt 0.4109 0.9903 0.9903
vt 0.4053 0.7550 0.7550
vt 0.3958 0.7550 0.7550
vt 0.3958 0.8763 0.8763
vt 0.3958 0.9911 0.9911
vt 0.4053 0.9911 0.9911
vt 0.4053 0.9988 0.9988
vt 0.4102 0.9988 0.9988
vt 0.4441 0.7550 0.7550
vt 0.4167 0.6680 0.6680
vt 0.4441 0.6680 0.6680
vt 0.4441 0.6597 0.6597
vt 0.4053 0.6597 0.6597
vt 0.4053 0.6680 0.6680
vt 0.3958 0.6760 0.6760
vt 0.3958 0.6680 0.6680
vt 0.0714 0.9676 0.9676
vt 0.1157 0.9676 0.9676
vt 0.2257 0.9673 0.9673
vt 0.1458 0.6743 0.6743
vt 0.3958 0.7590 0.7590
vt 0.3330 0.9983 0.9983
vt 0.3330 0.8402 0.8402
vt 0.3420 0.8402 0.8402
vt 0.3330 0.6821 0.6821
vt 0.3420 0.6821 0.6821
vt 0.3887 0.6821 0.6821
vt 0.3887 0.9008 0.9008
vt 0.3887 0.9983 0.9983
vt 0.3420 0.9983 0.9983
# 105 texture coords

g PlatformWooden
usemtl L_PropsExt_Mat_INST
s 1
f 1/1/1 2/2/2 3/3/3 
s 2
f 4/4/4 5/5/5 6/6/6 
s 3
f 6/6/6 7/7/7 4/4/4 
s 4
f 8/8/8 4/4/9 7/7/9 
s 5
f 7/7/7 9/9/10 8/8/8 
s 6
f 10/10/11 11/11/12 6/6/6 
s 7
f 7/7/7 6/6/6 11/11/12 
s 8
f 11/11/12 12/12/13 7/7/14 
s 9
f 9/9/10 7/7/7 12/12/13 
s 10
f 12/12/13 13/13/15 9/9/10 
s 11
f 9/9/10 13/13/15 14/14/16 
s 12
f 14/14/16 8/8/8 9/9/10 
s 13
f 15/1/17 8/8/8 14/14/16 
s 14
f 15/1/17 4/4/4 8/8/8 
s 15
f 4/4/4 15/1/17 16/3/18 
s 16
f 17/2/19 2/15/2 18/16/20 
s 17
f 3/17/3 2/15/2 17/2/19 
s 18
f 17/2/19 16/3/18 3/17/3 
s 19
f 3/17/3 16/3/18 15/1/17 
s 20
f 15/1/17 1/18/1 3/17/3 
s 21
f 14/14/16 1/18/1 15/1/17 
s 22
f 16/3/18 19/19/21 4/4/4 
s 23
f 16/3/18 17/2/19 19/19/21 
s 24
f 19/19/21 17/2/19 20/20/22 
s 25
f 18/16/20 20/20/22 17/2/19 
s 26
f 21/21/23 20/20/22 18/16/20 
s 27
f 18/16/20 22/22/24 21/21/23 
s 28
f 21/21/23 22/22/24 23/23/25 
s 29
f 23/23/25 24/24/26 21/21/23 
s 30
f 25/25/27 24/24/26 23/23/25 
s 31
f 25/25/27 26/26/28 24/24/26 
s 32
f 24/24/29 26/26/29 27/27/30 
s 33
f 27/27/30 21/21/23 24/24/26 
s 34
f 20/20/22 21/21/23 27/27/30 
s 35
f 20/20/22 27/27/30 19/19/21 
s 36
f 28/28/31 26/26/28 29/29/32 
s 37
f 30/30/33 26/26/28 28/28/31 
s 38
f 26/26/28 30/30/33 31/31/34 
s 39
f 31/31/34 27/27/30 26/26/28 
s 40
f 27/27/30 31/31/34 32/32/35 
s 41
f 32/32/35 19/19/21 27/27/30 
s 42
f 33/33/36 19/19/21 32/32/35 
s 43
f 19/19/21 33/33/36 34/34/37 
s 44
f 34/34/37 4/4/4 19/19/21 
s 45
f 28/28/31 35/35/38 36/36/39 
s 46
f 36/36/39 37/37/40 28/28/31 
s 47
f 28/28/31 37/37/40 30/30/33 
s 48
f 30/30/33 37/37/40 36/36/39 
s 49
f 36/36/39 38/38/41 30/30/33 
s 50
f 31/31/34 30/30/33 38/38/41 
s 51
f 38/38/41 39/39/42 31/31/34 
s 52
f 32/32/35 31/31/34 39/39/42 
s 53
f 39/39/42 40/40/43 32/32/35 
s 54
f 33/33/36 32/32/35 40/40/43 
s 55
f 40/40/43 41/41/44 33/33/36 
s 56
f 33/33/36 41/41/44 42/42/45 
s 57
f 42/42/45 34/34/37 33/33/36 
s 58
f 43/43/46 34/34/37 42/42/45 
s 59
f 4/4/4 34/34/37 43/43/46 
s 60
f 4/4/4 43/43/46 44/44/47 
s 61
f 44/44/47 5/5/48 4/4/4 
s 62
f 5/5/5 44/44/47 45/45/49 
s 63
f 45/45/49 10/10/11 5/5/5 
s 64
f 6/6/50 5/5/50 10/10/11 
s 65
f 42/42/45 46/46/51 43/43/46 
s 66
f 43/43/46 46/46/51 45/45/49 
s 67
f 45/45/49 44/44/47 43/43/46 
s 68
f 26/26/28 47/47/52 48/48/53 
s 69
f 48/48/53 29/29/32 26/26/28 
s 70
f 26/26/28 25/25/27 49/49/54 
s 71
f 49/49/54 47/47/52 26/26/28 
s 72
f 47/47/52 49/49/54 50/50/55 
s 73
f 50/50/55 51/51/56 47/47/52 
s 74
f 48/48/53 47/47/52 51/51/56 
s 75
f 51/51/56 52/52/57 48/48/53 
s 76
f 48/48/53 52/52/57 53/53/58 
s 77
f 53/53/58 29/29/32 48/48/53 
s 78
f 29/29/32 53/53/58 35/35/38 
s 79
f 35/35/38 28/28/31 29/29/32 
s 80
f 50/50/55 49/49/54 25/25/27 
s 81
f 25/25/27 54/54/59 50/50/55 
s 82
f 23/23/25 54/54/59 25/25/27 
s 83
f 55/55/60 56/56/61 57/57/62 
s 84
f 57/57/62 58/58/63 55/55/60 
s 85
f 58/58/63 57/57/62 59/59/64 
s 86
f 59/59/64 60/60/65 58/58/63 
s 87
f 61/61/66 60/62/65 59/59/64 
s 88
f 59/59/64 62/63/67 61/61/66 
s 89
f 62/63/67 59/59/64 57/57/62 
s 90
f 57/57/62 63/64/68 62/63/67 
s 91
f 63/64/68 57/57/62 56/56/61 
s 92
f 56/56/61 64/65/69 63/64/68 
s 93
f 65/66/70 64/65/69 56/56/61 
s 94
f 56/56/61 55/67/60 65/66/70 
s 95
f 66/68/71 67/69/72 68/70/73 
s 96
f 69/71/74 70/72/75 68/70/73 
s 97
f 71/73/76 69/71/74 68/70/73 
s 98
f 68/70/73 72/74/77 71/73/76 
s 99
f 72/74/77 68/70/73 67/69/72 
s 100
f 67/69/72 62/75/78 72/74/77 
s 101
f 73/76/79 70/72/75 69/71/74 
s 102
f 69/71/74 74/77/80 75/78/81 
s 103
f 75/78/81 76/79/82 69/71/74 
s 104
f 69/71/74 76/79/82 59/80/83 
s 105
f 59/80/83 77/81/84 69/71/74 
s 106
f 69/71/74 77/81/84 73/76/79 
s 107
f 73/76/79 77/81/84 59/82/83 
s 108
f 59/82/83 78/83/85 73/76/79 
s 109
f 73/76/79 78/83/85 66/68/71 
s 110
f 66/68/71 70/72/75 73/76/79 
s 111
f 68/70/73 70/72/75 66/68/71 
s 112
f 74/77/80 69/71/74 71/73/76 
s 113
f 71/73/76 79/84/86 74/77/80 
s 114
f 80/85/87 74/77/80 79/84/86 
s 115
f 79/84/86 81/86/88 80/85/87 
s 116
f 80/85/87 81/86/88 82/87/89 
s 117
f 82/87/89 83/88/90 80/85/87 
s 118
f 84/89/91 80/85/87 83/88/90 
s 119
f 74/77/80 80/85/87 84/89/91 
s 120
f 74/77/80 84/89/91 85/90/92 
s 121
f 85/90/92 75/78/81 74/77/80 
s 122
f 84/89/91 83/91/90 85/90/92 
s 123
f 13/9/15 12/92/13 11/93/12 
s 124
f 11/93/12 14/8/16 13/9/15 
s 125
f 1/1/1 14/8/16 11/93/12 
s 126
f 1/1/1 11/93/12 10/94/11 
s 127
f 54/25/59 23/24/25 22/21/24 
s 128
f 22/21/24 18/20/20 54/25/59 
s 129
f 54/25/59 18/20/20 39/31/42 
s 130
f 39/31/42 18/20/20 2/2/2 
s 131
f 2/2/2 40/32/43 39/31/42 
s 132
f 40/32/43 2/2/2 1/1/1 
s 133
f 1/1/1 42/34/45 40/32/43 
s 134
f 1/1/1 10/94/11 42/34/45 
s 135
f 46/43/51 42/34/45 10/94/11 
s 136
f 10/94/11 45/44/49 46/43/51 
s 137
f 40/32/43 42/34/45 41/33/44 
s 138
f 39/31/42 38/30/41 54/25/59 
s 139
f 36/37/39 35/28/38 53/95/58 
s 140
f 53/95/58 38/30/41 36/37/39 
s 141
f 38/30/41 53/95/58 52/48/57 
s 142
f 52/48/57 54/25/59 38/30/41 
s 143
f 54/25/59 52/48/57 51/47/56 
s 144
f 51/47/56 50/49/55 54/25/59 
s 145
f 86/72/93 87/76/94 88/71/95 
s 146
f 88/71/95 89/81/96 90/80/83 
s 147
f 87/76/94 89/81/96 88/71/95 
s 148
f 90/82/83 89/81/96 87/76/94 
s 149
f 87/76/94 91/83/85 90/82/83 
s 150
f 92/68/71 91/83/85 87/76/94 
s 151
f 87/76/94 86/72/93 92/68/71 
s 152
f 92/68/71 86/72/93 93/70/97 
s 153
f 88/71/95 93/70/97 86/72/93 
s 154
f 93/70/97 88/71/95 94/73/98 
s 155
f 94/73/98 88/71/95 95/77/99 
s 156
f 94/73/98 96/74/100 93/70/97 
s 157
f 97/69/72 93/70/97 96/74/100 
s 158
f 93/70/97 97/69/72 92/68/71 
s 159
f 96/74/100 98/75/78 97/69/72 
s 160
f 95/77/99 99/84/101 94/73/98 
s 161
f 99/84/101 95/77/99 100/85/102 
s 162
f 100/85/102 101/86/103 99/84/101 
s 163
f 102/87/104 101/86/103 100/85/102 
s 164
f 100/85/102 103/88/105 102/87/104 
s 165
f 104/89/106 103/88/105 100/85/102 
s 166
f 95/77/99 104/89/106 100/85/102 
s 167
f 105/90/107 104/89/106 95/77/99 
s 168
f 95/77/99 106/96/81 105/90/107 
s 169
f 106/96/81 95/77/99 88/71/95 
s 170
f 88/71/95 107/79/82 106/96/81 
s 171
f 90/80/83 107/79/82 88/71/95 
s 172
f 104/89/106 105/90/107 103/91/105 
s 173
f 105/97/107 108/98/108 109/99/109 
s 174
f 109/99/109 108/98/108 85/100/92 
s 175
f 85/100/92 83/101/90 109/99/109 
s 176
f 109/99/109 83/101/90 82/102/89 
s 177
f 82/102/89 110/103/110 109/99/109 
s 178
f 109/99/109 110/103/110 102/104/104 
s 179
f 102/104/104 103/105/105 109/99/109 
s 180
f 109/99/109 103/105/105 105/97/107 
# 180 faces

